<svg width="168" height="169" viewBox="0 0 168 169" fill="none" xmlns="http://www.w3.org/2000/svg">
<linearGradient id="paint0_linear_0_73" x1="78.493" y1="153.373" x2="78.493" y2="24.832" gradientUnits="userSpaceOnUse">
    <stop stop-color="#808080" stop-opacity="0.25"/>
    <stop offset="0.53514" stop-color="#808080" stop-opacity="0.12"/>
    <stop offset="1" stop-color="#808080" stop-opacity="0.1"/>
</linearGradient><linearGradient id="paint1_linear_0_73" x1="142.76" y1="146.428" x2="142.76" y2="123.033" gradientUnits="userSpaceOnUse">
    <stop stop-opacity="0.12"/>
    <stop offset="0.55135" stop-opacity="0.09"/>
    <stop offset="1" stop-opacity="0.02"/>
</linearGradient>
<path d="M22.0179 99.9162C23.0707 99.9162 23.9241 99.0628 23.9241 98.01C23.9241 96.9572 23.0707 96.1038 22.0179 96.1038C20.9651 96.1038 20.1117 96.9572 20.1117 98.01C20.1117 99.0628 20.9651 99.9162 22.0179 99.9162Z" fill="white"/>
<path d="M148.493 46.1991C149.297 46.1991 149.949 45.5471 149.949 44.7427C149.949 43.9383 149.297 43.2863 148.493 43.2863C147.688 43.2863 147.036 43.9383 147.036 44.7427C147.036 45.5471 147.688 46.1991 148.493 46.1991Z" fill="white"/>
<path d="M142.86 5.88996C143.913 5.88996 144.766 5.03652 144.766 3.98374C144.766 2.93096 143.913 2.07751 142.86 2.07751C141.807 2.07751 140.954 2.93096 140.954 3.98374C140.954 5.03652 141.807 5.88996 142.86 5.88996Z" fill="#F1BC19"/>
<path d="M23.0888 116.365C24.1416 116.365 24.9951 115.512 24.9951 114.459C24.9951 113.406 24.1416 112.553 23.0888 112.553C22.0361 112.553 21.1826 113.406 21.1826 114.459C21.1826 115.512 22.0361 116.365 23.0888 116.365Z" fill="#F1BC19"/>
<path d="M85.2874 163.935C129.587 163.935 165.499 128.023 165.499 83.7239C165.499 39.4244 129.587 3.51257 85.2874 3.51257C40.9879 3.51257 5.07605 39.4244 5.07605 83.7239C5.07605 128.023 40.9879 163.935 85.2874 163.935Z" fill="#E0AD51" fill-opacity="0.2"/>
<path d="M154.533 17.1774C159.276 17.1774 163.121 13.3321 163.121 8.58872C163.121 3.8453 159.276 0 154.533 0C149.789 0 145.944 3.8453 145.944 8.58872C145.944 13.3321 149.789 17.1774 154.533 17.1774Z" fill="#F1BC19"/>
<path d="M163.1 32.0417C165.324 32.0417 167.127 30.2389 167.127 28.015C167.127 25.7912 165.324 23.9884 163.1 23.9884C160.876 23.9884 159.074 25.7912 159.074 28.015C159.074 30.2389 160.876 32.0417 163.1 32.0417Z" fill="#AA234C"/>
<path d="M30.4997 168.283C32.7235 168.283 34.5263 166.48 34.5263 164.257C34.5263 162.033 32.7235 160.23 30.4997 160.23C28.2758 160.23 26.473 162.033 26.473 164.257C26.473 166.48 28.2758 168.283 30.4997 168.283Z" fill="#AA234C"/>
<path d="M140.975 45.3639C143.104 45.3639 144.83 43.6378 144.83 41.5086C144.83 39.3794 143.104 37.6533 140.975 37.6533C138.846 37.6533 137.12 39.3794 137.12 41.5086C137.12 43.6378 138.846 45.3639 140.975 45.3639Z" fill="white"/>
<path d="M16.5991 92.0556C19.6036 92.0556 22.0393 89.62 22.0393 86.6154C22.0393 83.6108 19.6036 81.1752 16.5991 81.1752C13.5945 81.1752 11.1588 83.6108 11.1588 86.6154C11.1588 89.62 13.5945 92.0556 16.5991 92.0556Z" fill="white"/>
<path d="M134.363 148.333H103.962L52.1816 153.373L0 148.333V24.832L51.9652 28.6126L105.053 24.832L156.986 31.9732L155.653 126.813L134.363 148.333Z" fill="url(#paint0_linear_0_73)"/>
<path d="M133.373 146.616H103.637L52.9885 151.52L1.94843 146.616V26.4532L52.7769 30.1316L104.703 26.4532L155.5 33.4015L154.196 125.678L133.373 146.616Z" fill="white"/>
<path d="M133.54 143.344H102.222L54.4492 147.971L6.30667 143.344V30.0032L54.2496 33.4728L103.228 30.0032L151.141 36.557V125.611L133.54 143.344Z" fill="#F1BC19"/>
<path d="M128.075 143.238L83.9423 116.362L109.661 30.377L99.5631 28.595L88.8325 64.6686L15.2143 28.595L3.04236 30.377L85.5255 75.6751L65.1108 147.396L75.2088 146.208L80.6354 127.369L110.849 143.238H128.075Z" fill="white"/>
<path d="M131.323 146.428L131.691 123.033L154.196 123.942L131.323 146.428Z" fill="url(#paint1_linear_0_73)"/>
<path d="M6.30667 78.9841L75.3328 109.6L79.92 119.125L75.3531 123.891L6.30667 91.0877V78.9841Z" fill="white"/>
<path d="M133.372 146.428L133.708 124.84L154.196 125.679L133.372 146.428Z" fill="white"/>
<path d="M100.091 128.275L128.892 33.5135L140.349 35.0806L108.083 133.231L100.091 128.275Z" fill="white"/>
<path opacity="0.1" d="M54.2496 147.971L102.193 143.344V30.0032L54.2496 33.4728" fill="black"/>
<path d="M98.1586 71.2531C98.1586 80.4084 81.6104 106.335 81.6104 106.335C81.6104 106.335 65.0622 80.4084 65.0622 71.2531C65.0615 69.0757 65.4889 66.9195 66.3202 64.9076C67.1515 62.8957 68.3703 61.0676 69.9071 59.5277C71.4438 57.9878 73.2683 56.7662 75.2764 55.9328C77.2845 55.0994 79.4368 54.6704 81.6104 54.6704C83.784 54.6704 85.9363 55.0994 87.9444 55.9328C89.9525 56.7662 91.777 57.9878 93.3137 59.5277C94.8504 61.0676 96.0692 62.8957 96.9005 64.9076C97.7318 66.9195 98.1593 69.0757 98.1586 71.2531Z" fill="#CC1B51"/>
<path d="M81.6104 75.1083C84.3734 75.1083 86.6133 72.8645 86.6133 70.0966C86.6133 67.3288 84.3734 65.085 81.6104 65.085C78.8473 65.085 76.6074 67.3288 76.6074 70.0966C76.6074 72.8645 78.8473 75.1083 81.6104 75.1083Z" fill="white"/>
<path d="M125.916 78.9841L151.142 85.4682V97.5717L120.261 86.5294L125.916 78.9841Z" fill="white"/>
<path d="M29.7766 102.238L23.4053 146.384L30.6361 147.909L40.1617 107.171L40.1505 101.398L29.7766 102.238Z" fill="white"/>
<path d="M29.5198 44.606L22.3707 86.109L27.9062 89.1027L41.1019 44.5933L29.5198 44.606Z" fill="white"/>
<path d="M43.1948 37.9215C44.0356 37.9215 44.7171 37.2387 44.7171 36.3965C44.7171 35.5543 44.0356 34.8716 43.1948 34.8716C42.3541 34.8716 41.6725 35.5543 41.6725 36.3965C41.6725 37.2387 42.3541 37.9215 43.1948 37.9215Z" fill="#FF7B25"/>
<path d="M24.9273 116.838C25.768 116.838 26.4495 116.155 26.4495 115.313C26.4495 114.47 25.768 113.788 24.9273 113.788C24.0865 113.788 23.405 114.47 23.405 115.313C23.405 116.155 24.0865 116.838 24.9273 116.838Z" fill="#FF7B25"/>
<path d="M23.405 128.084C24.2458 128.084 24.9273 127.401 24.9273 126.559C24.9273 125.717 24.2458 125.034 23.405 125.034C22.5643 125.034 21.8828 125.717 21.8828 126.559C21.8828 127.401 22.5643 128.084 23.405 128.084Z" fill="#FF7B25"/>
<path d="M39.5793 125.415C40.4201 125.415 41.1016 124.733 41.1016 123.891C41.1016 123.048 40.4201 122.366 39.5793 122.366C38.7386 122.366 38.057 123.048 38.057 123.891C38.057 124.733 38.7386 125.415 39.5793 125.415Z" fill="#FF7B25"/>
<path d="M13.5104 79.667C14.3511 79.667 15.0326 78.9842 15.0326 78.142C15.0326 77.2998 14.3511 76.6171 13.5104 76.6171C12.6696 76.6171 11.9881 77.2998 11.9881 78.142C11.9881 78.9842 12.6696 79.667 13.5104 79.667Z" fill="#FF7B25"/>
<path d="M133.39 78.1421C134.231 78.1421 134.913 77.4593 134.913 76.6171C134.913 75.7749 134.231 75.0922 133.39 75.0922C132.55 75.0922 131.868 75.7749 131.868 76.6171C131.868 77.4593 132.55 78.1421 133.39 78.1421Z" fill="#FF7B25"/>
<path d="M120.261 131.134C121.101 131.134 121.783 130.451 121.783 129.609C121.783 128.767 121.101 128.084 120.261 128.084C119.42 128.084 118.738 128.767 118.738 129.609C118.738 130.451 119.42 131.134 120.261 131.134Z" fill="#FF7B25"/>
<defs>
</defs>
</svg>
