<svg width="20" height="20" viewBox="0 0 20 20" fill="none" xmlns="http://www.w3.org/2000/svg">
<path d="M10 6.36364C8 6.36364 6.36364 8 6.36364 10C6.36364 12 8 13.6364 10 13.6364C12 13.6364 13.6364 12 13.6364 10C13.6364 8 12 6.36364 10 6.36364ZM18.0909 9.09091C17.6364 5.27273 14.6364 2.27273 10.9091 1.90909V0H9.09091V1.90909C5.27273 2.27273 2.27273 5.27273 1.90909 9.09091H0V10.9091H1.90909C2.36364 14.7273 5.36364 17.7273 9.09091 18.0909V20H10.9091V18.0909C14.7273 17.6364 17.7273 14.6364 18.0909 10.9091H20V9.09091H18.0909ZM10 16.3636C6.45455 16.3636 3.63636 13.5455 3.63636 10C3.63636 6.45455 6.45455 3.63636 10 3.63636C13.5455 3.63636 16.3636 6.45455 16.3636 10C16.3636 13.5455 13.5455 16.3636 10 16.3636Z" fill="white"/>
</svg>
